<mxfile host="app.diagrams.net" agent="Mozilla/5.0 (Macintosh; Intel Mac OS X 10_15_7) AppleWebKit/537.36 (KHTML, like Gecko) Chrome/129.0.0.0 Safari/537.36" version="24.7.16">
  <diagram name="Page-1" id="-qET49AzPsS_fe1-d1Zj">
    <mxGraphModel dx="1194" dy="507" grid="1" gridSize="10" guides="1" tooltips="1" connect="1" arrows="1" fold="1" page="1" pageScale="1" pageWidth="827" pageHeight="1169" math="0" shadow="0">
      <root>
        <mxCell id="0" />
        <mxCell id="1" parent="0" />
        <mxCell id="JlOxEhukSSphgLqK7U3i-1" value="" style="rounded=1;whiteSpace=wrap;html=1;" vertex="1" parent="1">
          <mxGeometry x="140" y="30" width="420" height="410" as="geometry" />
        </mxCell>
        <mxCell id="JlOxEhukSSphgLqK7U3i-3" value="" style="rounded=1;whiteSpace=wrap;html=1;" vertex="1" parent="1">
          <mxGeometry x="160" y="42.5" width="70" height="75" as="geometry" />
        </mxCell>
        <mxCell id="JlOxEhukSSphgLqK7U3i-4" value="" style="rounded=0;whiteSpace=wrap;html=1;fillColor=#6666FF;" vertex="1" parent="1">
          <mxGeometry x="140" y="30" width="120" height="280" as="geometry" />
        </mxCell>
        <mxCell id="JlOxEhukSSphgLqK7U3i-5" value="" style="rounded=0;whiteSpace=wrap;html=1;fillColor=#6666FF;" vertex="1" parent="1">
          <mxGeometry x="450" y="30" width="110" height="280" as="geometry" />
        </mxCell>
        <mxCell id="JlOxEhukSSphgLqK7U3i-2" value="" style="rounded=0;whiteSpace=wrap;html=1;fillColor=#6666FF;" vertex="1" parent="1">
          <mxGeometry x="140" y="30" width="420" height="110" as="geometry" />
        </mxCell>
      </root>
    </mxGraphModel>
  </diagram>
</mxfile>
